<svg xmlns:dc="http://purl.org/dc/elements/1.1/" xmlns:cc="http://creativecommons.org/ns#" xmlns:rdf="http://www.w3.org/1999/02/22-rdf-syntax-ns#" xmlns:svg="http://www.w3.org/2000/svg" xmlns="http://www.w3.org/2000/svg" xmlns:sodipodi="http://sodipodi.sourceforge.net/DTD/sodipodi-0.dtd" xmlns:inkscape="http://www.inkscape.org/namespaces/inkscape" version="1.1" x="0px" y="0px" width="100" height="125" viewBox="0 -23 100 125"><g transform="translate(0,-952.36218)"><path style="text-indent:0;text-transform:none;direction:ltr;block-progression:tb;baseline-shift:baseline;color:#000000;enable-background:accumulate;" d="m 43.812501,962.22307 a 2.000005,2.000005 0 0 0 -1.625,3.0625 l 2.4375,4.125 c -5.1767,2.05272 -8.9246,7.00234 -9.3125,12.84375 -2.2958,1.22433 -4.4247,2.70099 -6.3438,4.4375 l -7.25,-7.25 a 2.0108172,2.0108172 0 1 0 -2.8437,2.84375 l 7.3125,7.28125 c -4.4315,5.15225 -7.2759,11.75708 -7.7188,18.99998 l -10.4686995,0 a 2.00005,2.00005 0 1 0 0,4.0001 l 10.4686995,0 c 0.443,7.2429 3.2873,13.8477 7.7188,19 l -7.3125,7.2811 a 2.0108349,2.0108349 0 1 0 2.8437,2.8438 l 7.25,-7.2812 c 5.2366,4.7387 12.0502,7.7439 19.5313,8.0937 l 0,-44.78123 3,0 0,44.78123 c 7.4756,-0.3647 14.2724,-3.3803 19.5,-8.1249 l 7.2813,7.3124 a 2.0108349,2.0108349 0 0 0 2.843698,-2.8438 l -7.343698,-7.3124 c 4.413301,-5.1466 7.245797,-11.7437 7.687398,-18.9687 l 10.5313,0 a 2.00005,2.00005 0 0 0 0,-4.0001 l -10.5313,0 c -0.4416,-7.225 -3.274097,-13.82209 -7.687398,-18.96873 l 7.343698,-7.3125 a 2.0108172,2.0108172 0 0 0 -2.843698,-2.84375 l -7.2813,7.3125 c -1.9311,-1.75268 -4.0608,-3.26699 -6.375,-4.5 -0.3875,-5.81741 -4.1332,-10.77769 -9.2813,-12.84375 l 2.4688,-4.125 a 2.000005,2.000005 0 0 0 -1.6875,-3.0625 2.000005,2.000005 0 0 0 -1.75,1 l -3.0937,5.21875 c -0.4341,-0.0393 -0.868399,-0.0625 -1.3126,-0.0625 -0.4207,0 -0.8379,0.0271 -1.25,0.0625 l -3.0624,-5.21875 a 2.000005,2.000005 0 0 0 -1.8438,-1 z m 6.1562,10.15625 c 4.924,0 9.0367,3.33503 10.2813,7.9375 -3.2272,-1.13055 -6.6761,-1.71875 -10.2813,-1.71875 -3.6046,0 -7.0853,0.61845 -10.3124,1.75 1.2465,-4.60231 5.397801,-7.96875 10.3124,-7.96875 z" fill="#000000" fill-opacity="1" fill-rule="evenodd" stroke="none" marker="none" visibility="visible" display="inline" overflow="visible"/></g><text x="40" y="100" fill="#000000" font-size="4px" font-family="'Helvetica Neue', Helvetica, Arial-Unicode, Arial, Sans-serif">alvianwijaya</text><text x="0" y="120" fill="#000000" font-size="5px" font-weight="bold" font-family="'Helvetica Neue', Helvetica, Arial-Unicode, Arial, Sans-serif"></text></svg>